<svg width="218" height="35" viewBox="0 0 218 35" fill="none" xmlns="http://www.w3.org/2000/svg">
<path fill-rule="evenodd" clip-rule="evenodd" d="M12 0C5.37258 0 0 5.37258 0 12V23C0 29.6274 5.37258 35 12 35H205.812C212.439 35 217.812 29.6274 217.812 23V12C217.812 5.37258 212.439 0 205.812 0H12ZM54.1153 25H58.7559C60.0855 25 61.2275 24.7379 62.1821 24.2138C63.1409 23.6896 63.876 22.9375 64.3873 21.9574C64.903 20.9773 65.1608 19.8054 65.1608 18.4418C65.1608 17.0824 64.903 15.9148 64.3873 14.9389C63.876 13.9631 63.1452 13.2152 62.1949 12.6953C61.2446 12.1712 60.1111 11.9091 58.7943 11.9091H54.1153V25ZM58.6409 22.6286H56.8831V14.2805H58.6473C59.4655 14.2805 60.1537 14.4254 60.7119 14.7152C61.2702 15.005 61.6899 15.4567 61.9711 16.0703C62.2567 16.6839 62.3994 17.4744 62.3994 18.4418C62.3994 19.4176 62.2567 20.2145 61.9711 20.8324C61.6899 21.446 61.268 21.8999 60.7055 22.1939C60.1473 22.4837 59.4591 22.6286 58.6409 22.6286ZM67.211 11.9091V25H76.0576V22.718H69.9788V19.5923H75.5782V17.3104H69.9788V14.1911H76.0321V11.9091H67.211ZM84.6757 14.4723C85.0635 14.7578 85.2829 15.1584 85.3341 15.674H87.9868C87.974 14.8942 87.7652 14.2081 87.3604 13.6158C86.9555 13.0234 86.3888 12.5611 85.6601 12.2287C84.9356 11.8963 84.0876 11.7301 83.116 11.7301C82.1615 11.7301 81.3092 11.8963 80.5592 12.2287C79.8092 12.5611 79.219 13.0234 78.7886 13.6158C78.3625 14.2081 78.1515 14.9006 78.1558 15.6932C78.1515 16.6605 78.469 17.4297 79.1082 18.0007C79.7474 18.5717 80.6189 18.9915 81.7226 19.2599L83.148 19.6179C83.6253 19.733 84.028 19.8608 84.3561 20.0014C84.6885 20.142 84.9399 20.3125 85.1104 20.5128C85.2851 20.7131 85.3724 20.9602 85.3724 21.2543C85.3724 21.5696 85.2765 21.8487 85.0848 22.0916C84.893 22.3345 84.6224 22.5241 84.273 22.6605C83.9278 22.7969 83.5209 22.8651 83.0521 22.8651C82.5748 22.8651 82.1466 22.7926 81.7673 22.6477C81.3923 22.4986 81.0919 22.2791 80.866 21.9893C80.6444 21.6953 80.5187 21.3288 80.4889 20.8899H77.8106C77.8319 21.8317 78.0599 22.6222 78.4946 23.2614C78.9335 23.8963 79.5429 24.3757 80.3227 24.6996C81.1068 25.0234 82.0273 25.1854 83.0841 25.1854C84.1494 25.1854 85.0592 25.0256 85.8135 24.706C86.572 24.3821 87.1515 23.9283 87.5521 23.3445C87.9569 22.7564 88.1615 22.0618 88.1657 21.2607C88.1615 20.7152 88.0613 20.2315 87.8653 19.8097C87.6736 19.3878 87.403 19.0213 87.0535 18.7102C86.7041 18.3991 86.2907 18.1371 85.8135 17.924C85.3362 17.7109 84.8121 17.5405 84.241 17.4126L83.0649 17.1314C82.7794 17.0675 82.5109 16.9908 82.2595 16.9013C82.0081 16.8075 81.7865 16.6989 81.5947 16.5753C81.403 16.4474 81.2517 16.2962 81.1409 16.1214C81.0344 15.9467 80.9854 15.7422 80.9939 15.5078C80.9939 15.2266 81.0748 14.9751 81.2368 14.7536C81.403 14.532 81.6416 14.3594 81.9527 14.2358C82.2638 14.108 82.6451 14.044 83.0969 14.044C83.7616 14.044 84.2879 14.1868 84.6757 14.4723ZM98.7781 16.4922H101.578C101.488 15.7337 101.284 15.0604 100.964 14.4723C100.649 13.8842 100.24 13.3878 99.737 12.983C99.2341 12.5739 98.6567 12.2628 98.0047 12.0497C97.357 11.8366 96.6539 11.7301 95.8953 11.7301C94.7448 11.7301 93.7093 11.9943 92.7888 12.5227C91.8683 13.0469 91.1396 13.8097 90.6027 14.8111C90.0658 15.8125 89.7973 17.027 89.7973 18.4545C89.7973 19.8778 90.0615 21.0902 90.5899 22.0916C91.1226 23.093 91.847 23.858 92.7632 24.3864C93.6837 24.9148 94.7277 25.179 95.8953 25.179C96.7348 25.179 97.4869 25.0533 98.1517 24.8018C98.8208 24.5462 99.396 24.201 99.8776 23.7663C100.363 23.3274 100.749 22.831 101.035 22.277C101.324 21.7188 101.505 21.1392 101.578 20.5384L98.7781 20.5256C98.7142 20.875 98.5992 21.1861 98.433 21.4588C98.271 21.7315 98.0665 21.9638 97.8193 22.1555C97.5722 22.343 97.2888 22.4858 96.9692 22.5838C96.6539 22.6818 96.3108 22.7308 95.9401 22.7308C95.2796 22.7308 94.6979 22.5689 94.195 22.245C93.6922 21.9212 93.3002 21.4418 93.0189 20.8068C92.7419 20.1719 92.6034 19.3878 92.6034 18.4545C92.6034 17.5469 92.7419 16.7756 93.0189 16.1406C93.2959 15.5014 93.6858 15.0156 94.1887 14.6832C94.6915 14.3466 95.2817 14.1783 95.9593 14.1783C96.3343 14.1783 96.6815 14.2315 97.0012 14.3381C97.325 14.4446 97.6105 14.598 97.8577 14.7983C98.1049 14.9986 98.3073 15.2415 98.4649 15.527C98.6226 15.8082 98.727 16.13 98.7781 16.4922ZM102.607 25H105.573L106.544 22.0149H111.271L112.24 25H115.206L110.693 11.9091H107.126L102.607 25ZM110.569 19.8544L108.961 14.9006H108.858L107.247 19.8544H110.569ZM116.781 11.9091V25H119.549V20.3594H121.569L124.049 25H127.104L124.327 19.9143C124.367 19.897 124.406 19.8791 124.445 19.8608C125.157 19.5284 125.7 19.0511 126.075 18.429C126.45 17.8026 126.638 17.0547 126.638 16.1854C126.638 15.3203 126.453 14.5682 126.082 13.929C125.715 13.2855 125.18 12.7891 124.477 12.4396C123.778 12.0859 122.935 11.9091 121.946 11.9091H116.781ZM119.549 18.1349H121.428C121.957 18.1349 122.396 18.0625 122.745 17.9176C123.095 17.7727 123.354 17.5554 123.525 17.2656C123.7 16.9759 123.787 16.6158 123.787 16.1854C123.787 15.7507 123.7 15.3842 123.525 15.0859C123.354 14.7876 123.092 14.5618 122.739 14.4084C122.389 14.2507 121.948 14.1719 121.416 14.1719H119.549V18.1349ZM136.897 15.3161C137.059 15.5547 137.185 15.8295 137.274 16.1406H140.087C139.997 15.4929 139.795 14.9006 139.479 14.3636C139.164 13.8224 138.757 13.3558 138.259 12.9638C137.764 12.5717 137.198 12.2692 136.558 12.0561C135.919 11.8388 135.229 11.7301 134.487 11.7301C133.622 11.7301 132.819 11.8814 132.077 12.1839C131.336 12.4865 130.686 12.9276 130.128 13.5071C129.57 14.0866 129.135 14.794 128.824 15.6293C128.517 16.4602 128.364 17.4062 128.364 18.4673C128.364 19.848 128.622 21.0412 129.137 22.0469C129.657 23.0483 130.381 23.8217 131.31 24.3672C132.239 24.9084 133.318 25.179 134.545 25.179C135.644 25.179 136.62 24.9574 137.472 24.5142C138.325 24.0668 138.994 23.4318 139.479 22.6094C139.965 21.7827 140.208 20.794 140.208 19.6435V17.9943H134.73V20.0781H137.542C137.53 20.6014 137.411 21.0574 137.185 21.446C136.95 21.8551 136.609 22.1726 136.162 22.3984C135.719 22.62 135.184 22.7308 134.558 22.7308C133.867 22.7308 133.269 22.5646 132.761 22.2322C132.254 21.8956 131.862 21.4077 131.585 20.7685C131.308 20.1293 131.17 19.3537 131.17 18.4418C131.17 17.5298 131.31 16.7585 131.592 16.1278C131.873 15.4929 132.265 15.0092 132.768 14.6768C133.275 14.3445 133.863 14.1783 134.532 14.1783C134.89 14.1783 135.216 14.223 135.51 14.3125C135.808 14.402 136.073 14.532 136.303 14.7024C136.537 14.8686 136.735 15.0732 136.897 15.3161ZM141.173 25H144.139L145.11 22.0149H149.837L150.806 25H153.772L149.259 11.9091H145.693L141.173 25ZM149.136 19.8544L147.527 14.9006H147.425L145.813 19.8544H149.136ZM155.348 11.9091V25H158.115V20.3594H160.136L162.615 25H165.671L162.893 19.9143C162.933 19.897 162.973 19.8791 163.012 19.8608C163.723 19.5284 164.267 19.0511 164.642 18.429C165.017 17.8026 165.204 17.0547 165.204 16.1854C165.204 15.3203 165.019 14.5682 164.648 13.929C164.282 13.2855 163.747 12.7891 163.044 12.4396C162.345 12.0859 161.501 11.9091 160.513 11.9091H155.348ZM158.115 18.1349H159.995C160.523 18.1349 160.962 18.0625 161.312 17.9176C161.661 17.7727 161.921 17.5554 162.091 17.2656C162.266 16.9759 162.353 16.6158 162.353 16.1854C162.353 15.7507 162.266 15.3842 162.091 15.0859C161.921 14.7876 161.659 14.5618 161.305 14.4084C160.956 14.2507 160.515 14.1719 159.982 14.1719H158.115V18.1349Z" fill="#CD7104"/>
</svg>
